<svg version="1.1" xmlns="http://www.w3.org/2000/svg" viewBox="-6.656855249492382 -7.5319736474218075 13.313710498984763 15.063947294843619" fill="none" stroke="black" stroke-width="0.6%" vector-effect="non-scaling-stroke">
    <path d="M -5.65685 3.26599 L -5.65685 -1.63299 L -1.41421 0.8165 L 1.41421 0.8165 L 5.65685 -1.63299 L 5.65685 -3.26599" />
    <path d="M -5.65685 3.26599 L -1.41421 5.71548 L -1.41421 0.8165" />
    <path d="M -5.65685 -1.63299 L -5.65685 -3.26599" />
    <path d="M 0 6.53197 L -1.41421 5.71548 L 1.41421 5.71548 L 5.65685 3.26599 L 5.65685 -1.63299" />
    <path d="M -4.24264 -4.08248 L -5.65685 -1.63299" />
    <path d="M -4.24264 -4.08248 L 0 -1.63299 L 4.24264 -4.08248 L 5.65685 -3.26599" />
    <path d="M 0 -1.63299 L -1.41421 0.8165" />
    <path d="M 1.41421 5.71548 L 1.41421 0.8165" />
    <path d="M -4.24264 -4.08248 L -5.65685 -3.26599" />
    <path d="M 0 6.53197 L 1.41421 5.71548" />
    <path d="M 0 -6.53197 L -4.24264 -4.08248" />
    <path d="M 4.24264 -4.08248 L 0 -6.53197" />
    <path d="M 0 -1.63299 L 1.41421 0.8165" />
    <path d="M 4.24264 -4.08248 L 5.65685 -1.63299" />
</svg>