<svg version="1.1" xmlns="http://www.w3.org/2000/svg" viewBox="-8.862256963149553 -8.72121071525633 17.345075651404052 17.194522874397396" fill="none" stroke="black" stroke-width="0.6%" vector-effect="non-scaling-stroke">
    <path d="M 7.03465 -0.55061 A 5 1.9118 0 0 1 7.48282 0.2405 A 5 1.9118 0 0 1 -2.51718 0.2405 A 5 1.9118 0 0 1 -2.06901 -0.55061" />
    <path d="M -2.51718 3.93655 A 5 1.9118 180 0 0 -2.06901 4.72766 A 5 1.9118 180 0 0 7.03465 4.72766 A 5 1.9118 180 0 0 7.48282 3.93655" />
    <path d="M 0.66208 7.02504 A 2 0.76472 180 0 0 4.30355 7.02504 L 7.03465 4.72766" />
    <path d="M 1.65521 -3.22772 A 2 0.76472 0 0 1 4.30355 -2.84799 A 2 0.76472 0 1 1 0.66208 -2.84799 A 2 0.76472 0 0 1 1.65521 -3.22772 Z" />
    <path d="M -7.86226 -0.14556 L -7.86226 -3.84162 L -6.20704 -2.44927 L -2.23454 -1.87967 L -0.03448 -2.26204" />
    <path d="M -7.86226 -0.14556 L -6.20704 1.24679 L -2.51718 1.77586" />
    <path d="M -6.20704 1.24679 L -6.20704 -2.44927" />
    <path d="M -3.47594 3.54416 L -6.20704 1.24679" />
    <path d="M -5.13116 -7.08832 L -7.86226 -3.84162" />
    <path d="M -5.13116 -7.08832 L -3.47594 -5.69597 L -2.23454 -1.87967" />
    <path d="M -3.47594 -5.69597 L -6.20704 -2.44927" />
    <path d="M -2.23454 -0.39318 L -2.23454 -1.87967" />
    <path d="M -3.47594 3.54416 L -2.51718 3.37753" />
    <path d="M -3.47594 3.54416 L -2.51718 2.20977" />
    <path d="M -1.48969 -7.72121 L -5.13116 -7.08832" />
    <path d="M -3.47594 -5.69597 L 0.16552 -6.32886 L 2.89662 -4.03148" />
    <path d="M 0.16552 -6.32886 L -1.48969 -7.72121" />
    <path d="M 0.16552 -6.32886 L 1.20898 -3.12109" />
    <path d="M 2.16609 -3.28661 L 2.89662 -4.03148" />
    <path d="M 2.89662 -3.27972 L 2.89662 -4.03148" />
    <path d="M -2.51718 0.2405 L -2.51718 3.93655" />
    <path d="M 7.48282 0.2405 L 7.48282 3.93655" />
    <path d="M 0.66208 7.02504 L -2.06901 4.72766" />
    <path d="M 0.66208 -2.84799 L -2.06901 -0.55061" />
    <path d="M 4.30355 -2.84799 L 7.03465 -0.55061" />
</svg>